# xmcd CD database file
#
# Track frame offsets:
#	150
#	19967
#	40290
#	65772
#	82474
#	110003
#	127021
#	156884
#	190014
#	202473
#	218976
#	246910
#	279346
#	298508
#	312680
#	326451
#
# Disc length: 4684 seconds
#
# Revision: 1
# Processed by: cddbd v1.5.1PL0 Copyright (c) Steve Scherf et al.
# Submitted via: CDex 1.51
#
DISCID=0a124a10
DTITLE=Various Artist - Best of Salsa
DYEAR=2004
DGENRE=Salsa
TTITLE0=I'd like it like that
TTITLE1=Oye como va
TTITLE2=Bilongo
TTITLE3=El negro bembon
TTITLE4=Guantanamera
TTITLE5=El raton
TTITLE6=Café
TTITLE7=Pedro Navaja
TTITLE8=Fever
TTITLE9=Arrecotin arrecotan
TTITLE10=Juan Pachanga
TTITLE11=Anacoana
TTITLE12=Usted abuso
TTITLE13=Ran kan kan
TTITLE14=Te traigo guajira
TTITLE15=La murga
EXTD=YEAR: 2004
EXTT0=
EXTT1=
EXTT2=
EXTT3=
EXTT4=
EXTT5=
EXTT6=
EXTT7=
EXTT8=
EXTT9=
EXTT10=
EXTT11=
EXTT12=
EXTT13=
EXTT14=
EXTT15=
PLAYORDER=
